<?xml version="1.0" encoding="UTF-8" standalone="no"?>
<!-- Generator: Adobe Illustrator 19.0.0, SVG Export Plug-In . SVG Version: 6.00 Build 0)  -->

<svg
   xmlns:dc="http://purl.org/dc/elements/1.1/"
   xmlns:cc="http://creativecommons.org/ns#"
   xmlns:rdf="http://www.w3.org/1999/02/22-rdf-syntax-ns#"
   xmlns:svg="http://www.w3.org/2000/svg"
   xmlns="http://www.w3.org/2000/svg"
   xmlns:sodipodi="http://sodipodi.sourceforge.net/DTD/sodipodi-0.dtd"
   xmlns:inkscape="http://www.inkscape.org/namespaces/inkscape"
   version="1.1"
   id="Layer_1"
   x="0px"
   y="0px"
   viewBox="0 0 511.999 511.999"
   style="enable-background:new 0 0 511.999 511.999;"
   xml:space="preserve"
   sodipodi:docname="dna_white.svg"
   inkscape:version="0.92.5 (2060ec1f9f, 2020-04-08)"><metadata
   id="metadata43"><rdf:RDF><cc:Work
       rdf:about=""><dc:format>image/svg+xml</dc:format><dc:type
         rdf:resource="http://purl.org/dc/dcmitype/StillImage" /><dc:title></dc:title></cc:Work></rdf:RDF></metadata><defs
   id="defs41" /><sodipodi:namedview
   pagecolor="#ffffff"
   bordercolor="#666666"
   borderopacity="1"
   objecttolerance="10"
   gridtolerance="10"
   guidetolerance="10"
   inkscape:pageopacity="0"
   inkscape:pageshadow="2"
   inkscape:window-width="1920"
   inkscape:window-height="1016"
   id="namedview39"
   showgrid="false"
   inkscape:zoom="0.46093841"
   inkscape:cx="-107.00935"
   inkscape:cy="-374.67014"
   inkscape:window-x="0"
   inkscape:window-y="40"
   inkscape:window-maximized="1"
   inkscape:current-layer="Layer_1" />
<g
   id="g6"
   style="fill:#fffff8;fill-opacity:1">
	<g
   id="g4"
   style="fill:#fffff8;fill-opacity:1">
		<path
   d="M506.231,132.672c-7.688-7.689-20.157-7.69-27.849-0.001c-26.971,26.971-81.458,26.26-119.149,20.095    c-2.708-16.561-4.355-36.332-3.079-55.586l30.692,30.691c1.145,1.145,2.669,1.835,4.286,1.915    c12.058,0.592,25.012,0.217,36.898-1.889c5.204-0.922,7.177-7.362,3.441-11.1L366.665,51.99    c3.302-6.936,7.463-13.173,12.665-18.373c7.691-7.691,7.691-20.158,0-27.849c-7.689-7.69-20.158-7.69-27.849,0    c-33.892,33.89-39.264,92.231-33.357,139.777c-48.006-5.627-105.179-1.239-139.499,33.079    c-34.333,34.332-38.711,91.477-33.078,139.517c-47.448-5.847-105.971-0.47-139.779,33.339c-7.69,7.689-7.69,20.158,0,27.849    c7.688,7.69,20.157,7.69,27.849,0c5.204-5.204,11.439-9.367,18.37-12.669l64.769,64.769c3.71,3.71,10.114,1.795,11.08-3.363    c1.936-10.333,2.813-22.646,2.169-36.684c-0.075-1.627-0.769-3.17-1.921-4.322l-30.91-30.91    c19.334-1.279,39.169,0.39,55.707,3.102c5.306,31.63,8.262,90.656-20.212,119.129c-7.69,7.689-7.69,20.158,0,27.849    c7.69,7.692,20.158,7.69,27.849,0c34.052-34.051,39.176-92.539,33.394-139.492c47.65,5.762,106.123-0.026,139.462-33.364    c38.189-38.187,37.438-102.472,33.061-139.653c43.54,5.157,104.524,2.068,139.796-33.204    C513.922,152.83,513.922,140.362,506.231,132.672z M305.526,305.528c-26.971,26.971-81.459,26.259-119.149,20.095    c-2.708-16.559-4.355-36.331-3.079-55.586l30.69,30.69c1.146,1.145,2.67,1.835,4.289,1.915c12.19,0.597,25.089,0.203,36.896-1.889    c5.204-0.922,7.177-7.362,3.441-11.099l-64.807-64.807c6.899-14.494,16.53-24.132,31.036-31.042l64.761,64.76    c3.738,3.738,10.168,1.763,11.101-3.441c2.146-11.973,2.531-24.698,1.936-36.846c-0.079-1.617-0.769-3.143-1.915-4.289    l-30.696-30.696c19.268-1.275,39.047,0.378,55.591,3.084C331.795,224.132,332.457,278.596,305.526,305.528z"
   id="path2"
   style="fill:#fffff8;fill-opacity:1" />
	</g>
</g>
<g
   id="g8">
</g>
<g
   id="g10">
</g>
<g
   id="g12">
</g>
<g
   id="g14">
</g>
<g
   id="g16">
</g>
<g
   id="g18">
</g>
<g
   id="g20">
</g>
<g
   id="g22">
</g>
<g
   id="g24">
</g>
<g
   id="g26">
</g>
<g
   id="g28">
</g>
<g
   id="g30">
</g>
<g
   id="g32">
</g>
<g
   id="g34">
</g>
<g
   id="g36">
</g>
</svg>